<svg width="60" height="60" viewBox="0 0 60 60" fill="none" xmlns="http://www.w3.org/2000/svg">
<foreignObject x="-40" y="-40" width="140" height="140"><div xmlns="http://www.w3.org/1999/xhtml" style="backdrop-filter:blur(20px);clip-path:url(#bgblur_0_16420_1521_clip_path);height:100%;width:100%"></div></foreignObject><g data-figma-bg-blur-radius="40">
<rect width="60" height="60" rx="30" fill="#0A0D12" fill-opacity="0.5"/>
<path d="M29.8164 47.8858C19.8818 47.8858 11.7958 39.7997 11.7958 29.8652C11.7958 19.9306 19.8818 11.8445 29.8164 11.8445C39.751 11.8445 47.837 19.9306 47.837 29.8652C47.837 39.7997 39.751 47.8858 29.8164 47.8858ZM29.8164 14.7511C21.4804 14.7511 14.7023 21.5292 14.7023 29.8652C14.7023 38.2011 21.4804 44.9792 29.8164 44.9792C38.1524 44.9792 44.9305 38.2011 44.9305 29.8652C44.9305 21.5292 38.1524 14.7511 29.8164 14.7511Z" fill="#FDFDFD"/>
<path d="M24.5855 28.0922C21.1791 28.0922 17.4936 27.5865 13.5639 26.5634C12.7849 26.3599 12.3199 25.5694 12.5234 24.7904C12.7268 24.0114 13.5174 23.5464 14.2964 23.7499C26.2016 26.8424 35.52 24.8834 41.2401 18.0937C41.7575 17.4833 42.6759 17.4019 43.2863 17.9193C43.9025 18.4367 43.9781 19.3551 43.4607 19.9655C38.9207 25.3543 32.503 28.0922 24.5855 28.0922Z" fill="#FDFDFD"/>
<path d="M17.3194 42.1948C16.9822 42.1948 16.6509 42.0785 16.3777 41.846C15.7673 41.3228 15.6975 40.4043 16.2149 39.794C24.7137 29.8594 35.712 27.4993 46.3907 33.3298C47.0941 33.7135 47.3557 34.597 46.972 35.3004C46.5884 36.0038 45.7048 36.2654 45.0014 35.8817C32.1777 28.8886 22.8477 36.5154 18.4239 41.689C18.139 42.0204 17.7321 42.1948 17.3194 42.1948Z" fill="#FDFDFD"/>
<path d="M34.5771 47.1885C34.5248 47.1885 34.4725 47.1885 34.4202 47.1827C33.6238 47.0955 33.0483 46.3805 33.1355 45.5783C34.269 35.1845 31.595 24.7035 25.1948 14.4143C24.7704 13.7341 24.9797 12.8389 25.6598 12.4146C26.34 11.9902 27.2352 12.1995 27.6595 12.8796C34.4144 23.7327 37.2279 34.8415 36.0246 45.898C35.9374 46.6421 35.3096 47.1885 34.5771 47.1885Z" fill="#FDFDFD"/>
</g>
<defs>
<clipPath id="bgblur_0_16420_1521_clip_path" transform="translate(40 40)"><rect width="60" height="60" rx="30"/>
</clipPath></defs>
</svg>
