<svg width="133" height="48" viewBox="0 0 133 48" fill="none" xmlns="http://www.w3.org/2000/svg">
<g clip-path="url(#clip0_20921_696)">
<path d="M70.1857 14.0501C70.1857 15.4915 68.9791 16.6527 67.4814 16.6527C65.9837 16.6527 64.7771 15.4915 64.7771 14.0501C64.7771 12.6086 65.9421 11.4474 67.4814 11.4474C69.0208 11.4875 70.1857 12.6486 70.1857 14.0501ZM59.0358 19.2953C59.0358 19.5355 59.0358 19.9359 59.0358 19.9359C59.0358 19.9359 57.746 18.3343 55.0002 18.3343C50.4653 18.3343 46.929 21.6577 46.929 26.2623C46.929 30.8268 50.4237 34.1902 55.0002 34.1902C57.7876 34.1902 59.0358 32.5485 59.0358 32.5485V33.2292C59.0358 33.5495 59.2854 33.7898 59.6182 33.7898H62.9882V18.7347C62.9882 18.7347 59.9095 18.7347 59.6182 18.7347C59.2854 18.7347 59.0358 19.015 59.0358 19.2953ZM59.0358 28.9449C58.4117 29.8258 57.1636 30.5866 55.6658 30.5866C53.0032 30.5866 50.9646 28.985 50.9646 26.2623C50.9646 23.5395 53.0032 21.9379 55.6658 21.9379C57.122 21.9379 58.4533 22.7387 59.0358 23.5796V28.9449ZM65.4844 18.7347H69.4784V33.7898H65.4844V18.7347ZM125.145 18.3343C122.399 18.3343 121.109 19.9359 121.109 19.9359V11.4875H117.115V33.7898C117.115 33.7898 120.194 33.7898 120.485 33.7898C120.818 33.7898 121.067 33.5095 121.067 33.2292V32.5485C121.067 32.5485 122.357 34.1902 125.103 34.1902C129.638 34.1902 133.174 30.8268 133.174 26.2623C133.174 21.6977 129.638 18.3343 125.145 18.3343ZM124.479 30.5465C122.94 30.5465 121.733 29.7858 121.109 28.9049V23.5395C121.733 22.7387 123.064 21.8979 124.479 21.8979C127.142 21.8979 129.18 23.4995 129.18 26.2222C129.18 28.9449 127.142 30.5465 124.479 30.5465ZM115.035 24.8609V33.8298H111.041V25.3013C111.041 22.8188 110.209 21.8178 107.962 21.8178C106.756 21.8178 105.508 22.4184 104.717 23.2993V33.7898H100.723V18.7347H103.885C104.218 18.7347 104.467 19.015 104.467 19.2953V19.9359C105.632 18.7748 107.172 18.3343 108.711 18.3343C110.458 18.3343 111.915 18.8148 113.079 19.7758C114.494 20.8969 115.035 22.3383 115.035 24.8609ZM91.0293 18.3343C88.2835 18.3343 86.9937 19.9359 86.9937 19.9359V11.4875H82.9997V33.7898C82.9997 33.7898 86.0784 33.7898 86.3697 33.7898C86.7025 33.7898 86.9521 33.5095 86.9521 33.2292V32.5485C86.9521 32.5485 88.2418 34.1902 90.9877 34.1902C95.5226 34.1902 99.0589 30.8268 99.0589 26.2623C99.1005 21.6977 95.5642 18.3343 91.0293 18.3343ZM90.3637 30.5465C88.8243 30.5465 87.6178 29.7858 86.9937 28.9049V23.5395C87.6178 22.7387 88.9491 21.8979 90.3637 21.8979C93.0263 21.8979 95.0649 23.4995 95.0649 26.2222C95.0649 28.9449 93.0263 30.5465 90.3637 30.5465ZM79.5466 18.3343C80.7531 18.3343 81.3772 18.5345 81.3772 18.5345V22.0981C81.3772 22.0981 78.0488 21.017 75.9686 23.2993V33.8298H71.9746V18.7347C71.9746 18.7347 75.0534 18.7347 75.3446 18.7347C75.6774 18.7347 75.927 19.015 75.927 19.2953V19.9359C76.6759 19.0951 78.2985 18.3343 79.5466 18.3343ZM38.0673 32.4284C37.8593 31.9479 37.6513 31.4274 37.4432 30.987C37.1104 30.2663 36.7776 29.5856 36.4864 28.9449L36.4447 28.9049C33.5741 22.8989 30.4954 16.8128 27.2502 10.8068L27.1254 10.5666C26.7926 9.96597 26.4598 9.32533 26.1269 8.68468C25.7109 7.96396 25.2949 7.2032 24.6292 6.48248C23.2979 4.88088 21.3841 4 19.3455 4C17.2653 4 15.3931 4.88088 14.0201 6.4024C13.3961 7.12312 12.9384 7.88388 12.5224 8.6046C12.1896 9.24525 11.8567 9.88589 11.5239 10.4865L11.3991 10.7267C8.19557 16.7327 5.07526 22.8188 2.20458 28.8248L2.16297 28.9049C1.87174 29.5455 1.53891 30.2262 1.20608 30.9469C0.998059 31.3874 0.790039 31.8679 0.582018 32.3884C0.0411649 33.8699 -0.125252 35.2713 0.0827689 36.7127C0.540414 39.7157 2.62062 42.2382 5.4913 43.3594C6.57301 43.7998 7.69632 44 8.86123 44C9.19407 44 9.61011 43.96 9.94294 43.9199C11.3159 43.7598 12.7304 43.3193 14.1034 42.5586C15.8091 41.6376 17.4317 40.3163 19.2623 38.3944C21.0928 40.3163 22.757 41.6376 24.4212 42.5586C25.7941 43.3193 27.2086 43.7598 28.5816 43.9199C28.9144 43.96 29.3304 44 29.6633 44C30.8282 44 31.9931 43.7998 33.0332 43.3594C35.9455 42.2382 37.9841 39.6757 38.4417 36.7127C38.7746 35.3113 38.6082 33.9099 38.0673 32.4284ZM19.3039 34.5105C17.0572 31.7878 15.6011 29.2252 15.1018 27.0631C14.8938 26.1421 14.8522 25.3413 14.977 24.6206C15.0602 23.98 15.3099 23.4194 15.6427 22.9389C16.4332 21.8579 17.7645 21.1772 19.3039 21.1772C20.8432 21.1772 22.2161 21.8178 22.965 22.9389C23.2979 23.4194 23.5475 23.98 23.6307 24.6206C23.7555 25.3413 23.7139 26.1822 23.5059 27.0631C23.0066 29.1852 21.5505 31.7477 19.3039 34.5105ZM35.9039 36.3924C35.6127 38.4745 34.1565 40.2763 32.1179 41.0771C31.1194 41.4775 30.0377 41.5976 28.956 41.4775C27.9159 41.3574 26.8758 41.037 25.7941 40.4364C24.2964 39.6356 22.7986 38.3944 21.0512 36.5526C23.7971 33.3093 25.4613 30.3463 26.0853 27.7037C26.3766 26.4625 26.4182 25.3413 26.2934 24.3003C26.1269 23.2993 25.7525 22.3784 25.17 21.5776C23.8803 19.7758 21.7169 18.7347 19.3039 18.7347C16.8908 18.7347 14.7274 19.8158 13.4377 21.5776C12.8552 22.3784 12.4808 23.2993 12.3144 24.3003C12.148 25.3413 12.1896 26.5025 12.5224 27.7037C13.1465 30.3463 14.8522 33.3493 17.5565 36.5926C15.8507 38.4344 14.3114 39.6757 12.8136 40.4765C11.7319 41.0771 10.6918 41.3974 9.65171 41.5175C8.5284 41.6376 7.44669 41.4775 6.4898 41.1171C4.4512 40.3163 2.99506 38.5145 2.70383 36.4324C2.57901 35.4314 2.66222 34.4304 3.07826 33.3093C3.20308 32.9089 3.4111 32.5085 3.61912 32.028C3.91035 31.3874 4.24318 30.7067 4.57601 30.026L4.61762 29.9459C7.4883 23.98 10.567 17.8939 13.7705 11.968L13.8953 11.7277C14.2282 11.1271 14.561 10.4865 14.8938 9.88589C15.2267 9.24525 15.6011 8.64464 16.0587 8.12412C16.9324 7.16316 18.0973 6.64264 19.3871 6.64264C20.6768 6.64264 21.8417 7.16316 22.7154 8.12412C23.173 8.64464 23.5475 9.24525 23.8803 9.88589C24.2131 10.4865 24.546 11.1271 24.8788 11.7277L25.0036 11.968C28.1655 17.9339 31.2442 24.02 34.1149 29.986V30.026C34.4478 30.6667 34.739 31.3874 35.0718 32.028C35.2798 32.5085 35.4879 32.9089 35.6127 33.3093C35.9455 34.3503 36.0703 35.3514 35.9039 36.3924Z" fill="#FF5A5F"/>
</g>
<defs>
<clipPath id="clip0_20921_696">
<rect width="133" height="48" fill="white"/>
</clipPath>
</defs>
</svg>
