<svg width="133" height="48" viewBox="0 0 133 48" fill="none" xmlns="http://www.w3.org/2000/svg">
<g clip-path="url(#clip0_20921_446)">
<path d="M39.9986 20.6688H27.8137L38.3658 15.3372L36.2733 12.1638L25.7198 17.4955L31.8109 8.26132L28.1856 6.42965L22.0932 15.6615V5.00049H17.9054V15.6627L11.813 6.42965L8.18631 8.26132L14.2774 17.4932L3.72663 12.1638L1.63273 15.3372L12.1848 20.6688H0V24.3333H12.1835L1.63273 29.665L3.72529 32.8383L14.2787 27.5067L8.18631 36.7408L11.8116 38.5725L17.9054 29.3395V40.0005H22.0932V29.1108L28.2976 38.5142L31.6976 36.7968L25.4919 27.3912L36.2706 32.8372L38.3645 29.6638L27.8137 24.3322H39.9972V20.6688H39.9986V20.6688ZM19.9993 27.4822C19.2517 27.4822 18.5115 27.3534 17.8208 27.1031C17.1301 26.8527 16.5025 26.4858 15.9738 26.0231C15.4452 25.5605 15.0258 25.0112 14.7396 24.4067C14.4535 23.8022 14.3061 23.1543 14.3061 22.4999C14.306 21.8455 14.4531 21.1976 14.7391 20.593C15.0251 19.9884 15.4444 19.4391 15.9729 18.9763C16.5014 18.5136 17.1289 18.1465 17.8196 17.896C18.5102 17.6455 19.2504 17.5166 19.998 17.5165C21.5077 17.5163 22.9557 18.0412 24.0234 18.9755C25.0911 19.9099 25.691 21.1772 25.6912 22.4987C25.6914 23.8203 25.0918 25.0877 24.0243 26.0223C22.9569 26.9569 21.5091 27.482 19.9993 27.4822V27.4822Z" fill="#625DF5"/>
<path d="M50.7936 35.3019V9.69824H56.1623V35.3019H50.7936V35.3019ZM102.285 17.9022H107.411V20.0256C108.502 18.3281 111.046 17.4076 113.225 17.4076C115.931 17.4076 118.11 18.4342 119.119 20.3067C120.692 18.1834 122.792 17.4076 125.417 17.4076C129.09 17.4076 132.601 19.3524 132.601 24.0202V35.3019H127.395V24.9757C127.395 23.1009 126.344 21.6857 123.881 21.6857C121.58 21.6857 120.207 23.2432 120.207 25.1181V35.3031H114.881V24.9757C114.881 23.1009 113.79 21.6857 111.367 21.6857C109.026 21.6857 107.653 23.2082 107.653 25.1181V35.3031H102.285V17.9022V17.9022ZM68.2952 35.8059C62.2468 35.8059 57.867 31.8777 57.867 26.6021C57.867 21.4104 62.2334 17.3901 68.2952 17.3901C74.3863 17.3901 78.7233 21.4477 78.7233 26.6021C78.7233 31.8404 74.341 35.8059 68.2952 35.8059ZM68.2952 21.6484C66.7949 21.6503 65.3568 22.173 64.2963 23.1019C63.2358 24.0308 62.6397 25.29 62.6386 26.6032C62.6397 27.9165 63.2358 29.1757 64.2963 30.1046C65.3568 31.0335 66.7949 31.5562 68.2952 31.5581C69.7952 31.5559 71.233 31.033 72.2932 30.1042C73.3534 29.1753 73.9494 27.9163 73.9504 26.6032C73.9494 25.2902 73.3534 24.0312 72.2932 23.1023C71.233 22.1734 69.7952 21.6506 68.2952 21.6484V21.6484ZM90.1898 35.8059C84.1413 35.8059 79.7616 31.8777 79.7616 26.6021C79.7616 21.4104 84.128 17.3901 90.1898 17.3901C96.2809 17.3901 100.618 21.4477 100.618 26.6021C100.618 31.8404 96.2329 35.8059 90.1898 35.8059ZM90.1898 21.5889C88.6723 21.5911 87.2178 22.1199 86.1451 23.0595C85.0725 23.9991 84.4693 25.2726 84.4679 26.6009C84.4693 27.9292 85.0725 29.2028 86.1451 30.1423C87.2178 31.0819 88.6723 31.6107 90.1898 31.6129C91.7073 31.6107 93.1618 31.0819 94.2345 30.1423C95.3071 29.2028 95.9103 27.9292 95.9117 26.6009C95.9103 25.2726 95.3071 23.9991 94.2345 23.0595C93.1618 22.1199 91.7073 21.5911 90.1898 21.5889V21.5889Z" fill="#212121"/>
</g>
<defs>
<clipPath id="clip0_20921_446">
<rect width="133" height="48" fill="white"/>
</clipPath>
</defs>
</svg>
